<svg width="1293" height="318" viewBox="0 0 1293 318" fill="none" xmlns="http://www.w3.org/2000/svg">
<path d="M161.554 90.1779C127.391 76.6351 77.7494 82.8333 54.962 114.075V0H0V312.434H54.962V186.733C54.962 178.439 56.3952 171.041 59.2615 164.502C67.9143 144.349 88.2294 133.923 109.924 134.156C141.687 134.013 158.401 155.241 158.204 186.733V312.434H213.166V173.352C213.166 160.292 211.249 148.183 207.433 137.022C199.784 114.487 183.535 99.0273 161.536 90.1779H161.554Z" fill="#17102C"/>
<path d="M418.307 90.1753C383.123 76.7041 330.507 82.6157 307.648 115.505L303.349 88.2585H255.553V312.431H310.515L311.482 187.68C311.482 179.404 312.915 171.916 315.782 165.216C321.299 152.032 332.55 142.573 345.663 137.736C383.785 125.286 418.844 144.723 417.608 188.164V312.431H472.105V176.215C472.105 162.511 470.026 149.936 465.888 138.453C457.54 115.362 441.381 98.9889 418.325 90.1753H418.307Z" fill="#17102C"/>
<path d="M955.636 116.474C920.29 70.5971 838.474 73.9469 799.814 115.758C757.41 159.342 757.912 240.366 799.814 284.004C838.582 326.674 919.538 330.15 955.636 284.255L959.935 312.451H1009.16V88.278H958.968L955.618 116.474H955.636ZM915.005 263.439C868.374 282.911 821.796 249.753 822.279 199.63C821.563 162.531 849.814 130.949 887.757 131.755C906.281 131.629 923.766 138.598 936.27 151.352C967.692 183.508 957.893 246.08 915.005 263.439Z" fill="#17102C"/>
<path d="M1261.38 115.759C1223.05 73.8406 1141.52 70.8311 1106.51 116.475V0H1051.55V312.434H1098.86L1104.6 283.754C1140.25 330.652 1222.12 326.281 1261.13 283.987C1303.52 240.474 1303.65 159.253 1261.37 115.741L1261.38 115.759ZM1200.44 263.44C1154.49 283.02 1106.03 249.378 1106.51 199.631C1106.24 172.653 1121.49 147.412 1146.43 137.022C1170.56 126.543 1203.34 131.738 1221.22 151.353C1252 183.401 1242.68 245.759 1200.44 263.44Z" fill="#17102C"/>
<path d="M730.987 174.946H514.453V222.722H730.987V174.946Z" fill="#17102C"/>
</svg>
